<?xml version="1.0" encoding="UTF-8"?>
<!DOCTYPE svg PUBLIC "-//W3C//DTD SVG 1.1//EN" "http://www.w3.org/Graphics/SVG/1.1/DTD/svg11.dtd">
<!-- Creator: CorelDRAW 2019 (64 Bit) -->
<svg xmlns="http://www.w3.org/2000/svg" xml:space="preserve" width="72.8228mm" height="72.823mm" version="1.1" shape-rendering="geometricPrecision" text-rendering="geometricPrecision" image-rendering="optimizeQuality" fill-rule="evenodd" clip-rule="evenodd"
viewBox="0 0 689 689"
 xmlns:xlink="http://www.w3.org/1999/xlink">
 <g id="Camada_x0020_1">
  <metadata id="CorelCorpID_0Corel-Layer"/>
  <path  d="M583 574c11,0 19,2 28,8 11,7 19,21 19,34l0 50 -89 0 0 -53c0,-4 1,-7 2,-10 1,-4 3,-8 6,-11 3,-3 7,-8 11,-10 1,-1 2,-1 3,-2 2,-1 4,-2 6,-3 3,-1 10,-3 14,-3zm82 11l-13 0c-3,-1 -6,-1 -8,-3 -9,-12 -17,-17 -27,-19 0,-1 3,-5 4,-6 2,-2 5,-7 7,-10 7,-15 5,-36 -6,-49 -4,-5 -9,-10 -15,-12 -14,-6 -27,-7 -41,0 -6,3 -14,9 -18,15 -10,14 -12,32 -4,47 1,3 2,4 4,7 1,1 3,6 3,8 -2,1 -4,2 -6,3 -2,1 -4,3 -6,4 -8,-23 -19,-37 -33,-44 4,-6 5,-6 8,-13 5,-12 5,-24 0,-36 -1,-3 -4,-8 -6,-10 -1,-1 -2,-3 -2,-3l0 -263 159 0c0,129 0,258 0,386zm-641 0l21 0c5,-10 12,-18 25,-25 -1,-3 -3,-4 -5,-7 -9,-13 -10,-30 -4,-44 2,-5 5,-10 9,-13 15,-15 36,-19 55,-10 23,12 33,42 19,65 -2,4 -6,7 -6,11 2,1 4,2 7,3 2,1 4,3 6,4 1,-10 19,-37 34,-41 -1,-3 -2,-5 -4,-7 -2,-2 -3,-4 -4,-7 -4,-9 -5,-14 -5,-23 0,-7 4,-17 8,-22 1,-2 4,-5 4,-6l0 -263 -159 0c-1,0 -1,0 0,1l0 385zm529 -287c2,1 19,0 23,0l0 -20c0,-3 0,-2 -1,-3 -1,-1 -21,0 -22,0l0 17c0,1 0,2 0,3 0,2 0,2 0,3zm-174 -79l0 19 23 0 0 -23 -22 0c0,2 0,2 0,4zm-92 19l23 0 0 -23 -23 0 0 23zm0 92l23 0 0 -23 -23 0 0 23zm92 0l23 0 0 -23 -23 0 0 23zm46 0l23 0 0 -23 -23 0 0 23zm-312 60l23 0 0 -23 -23 0 0 23zm-46 0l23 0 0 -23 -23 0 0 23zm174 -60l23 0 0 -23 -23 0 0 23zm-174 14l23 0 0 -23 -23 0 0 23zm46 0l23 0 0 -23 -23 0 0 23zm440 37c0,5 -1,8 1,8l22 0 0 -23 -23 0c0,5 0,9 0,14zm-265 -7c0,1 0,1 1,1l20 0c1,0 1,0 1,-1l0 -22 -23 0 0 22zm311 14c0,1 0,1 1,1l22 0 0 -23 -23 0 0 21zm-219 -14c0,1 0,1 1,1l21 0 0 -23 -23 0 0 22zm-46 -45l23 0 0 -21c0,-1 0,-1 -1,-1l-22 0 0 23zm92 45c0,1 0,1 1,1l21 0 0 -23 -23 0 0 22zm-183 1l21 0c1,0 1,0 1,-1l0 -22 -23 0 0 23zm91 -138l23 0 0 -23 -23 0 0 23zm-220 198l23 0 0 -23 -23 0 0 23zm-46 0l23 0 0 -23 -23 0 0 23zm0 -138l23 0 0 -23 -23 0 0 23zm46 0l23 0 0 -23 -23 0 0 23zm129 -14l23 0 0 -23 -23 0 0 23zm183 0l23 0 0 -23 -23 0 0 23zm128 60l23 0 0 -23 -23 0 0 23zm46 -21l0 21 23 0c1,-4 0,-17 0,-23l-22 0c-1,0 -1,0 -1,1zm-219 -38l22 0c2,0 1,-2 1,-4 -1,-4 0,-15 0,-19l-23 0 0 23zm173 145c0,5 -1,7 1,7l20 0c1,0 1,0 1,-1l0 -20c0,-1 0,-1 -1,-1l-21 0c0,6 0,10 0,16zm-265 -146l0 1 23 0 0 -23c-25,0 -23,-2 -23,4l0 17zm311 131l0 20c0,1 0,1 1,1l20 0c1,0 1,0 1,-1l0 -20c0,-1 0,-1 -1,-1l-20 0c-1,0 -1,0 -1,1zm-265 -39c0,1 0,1 1,1l20 0c1,0 1,0 1,-1l0 -22 -23 0 0 22zm0 -112l0 22 23 0 0 -22c0,-1 0,-1 -1,-1l-20 0c-1,0 -1,0 -1,1zm265 14c0,24 -2,22 4,22l18 0c0,-1 0,-2 0,-3l0 -20 -22 0c-1,0 -1,0 -1,1zm-183 -180c-1,0 -2,1 -3,2l-5 8 -5 -8 -8 0 8 13 -9 13 8 0 5 -8 5 8 8 0 -9 -13 10 -15 -6 0zm-45 23c4,0 6,-2 6,-7 0,-5 -2,-8 -6,-8 -4,0 -6,3 -6,8 0,5 2,7 6,7zm-6 10c0,2 -1,3 -3,3l-3 0 0 -22c0,-8 5,-11 13,-11 8,0 12,4 12,13 0,9 -4,13 -11,14 -3,0 -6,-1 -8,-4l0 8zm-22 -10c-4,0 -5,-2 -6,-7 0,-5 2,-8 6,-8 4,0 6,3 6,8 0,5 -2,7 -6,7zm-2 6c3,0 6,-1 8,-4 0,3 0,0 0,0 0,4 -2,6 -5,6 -1,0 -1,0 -2,0 -2,-1 -4,0 -5,1l-2 2c2,2 5,3 8,3 9,0 13,-3 13,-10l0 -13c0,-8 -4,-12 -13,-11 -8,0 -12,4 -12,13 0,9 4,13 11,13zm-13 -26l-3 0c-2,0 -3,1 -3,3l0 14c0,3 -2,4 -5,4 -3,0 -5,-1 -5,-4l0 -17 -7 0 0 15c0,4 1,7 4,9 2,1 5,2 8,2 3,0 6,-1 8,-2 2,-1 4,-4 4,-9l0 -15zm-29 -7l-4 0 0 33 7 0 0 -30c0,-2 -1,-3 -3,-3zm-24 38c0,2 -1,3 -3,3l-3 0 0 -23c0,-8 5,-11 13,-11 8,0 12,4 12,13 0,9 -4,13 -11,14 -3,0 -6,-1 -8,-4l0 9zm6 -10c4,0 6,-2 6,-7 0,-5 -2,-8 -6,-8 -4,0 -6,3 -6,8 0,5 2,7 6,7zm106 -21l0 26 7 0 0 -23c0,-2 -1,-3 -3,-3l-4 0zm0 -7l0 5 7 0 0 -2c0,-2 -1,-3 -3,-3l-4 0zm10 89c-9,0 -17,-2 -25,-5 -8,-3 -16,-8 -22,-15l0 0 17 -17c4,4 9,7 14,9 10,4 22,4 32,0 5,-2 10,-5 14,-9 4,-4 7,-9 9,-14 2,-5 3,-10 3,-16 0,-5 -1,-11 -3,-16 -2,-5 -5,-10 -9,-14 -4,-4 -9,-7 -14,-9 -10,-4 -22,-4 -32,0 -5,2 -10,5 -14,9l-9 10 -34 0 1 -1 26 -26c6,-6 14,-11 22,-15 16,-6 34,-6 50,0 8,3 16,8 22,15 6,6 11,14 15,22 3,8 5,16 5,25 0,9 -2,17 -5,25 -3,8 -8,16 -15,22 -6,6 -14,11 -22,15 -8,3 -16,5 -25,5zm-102 -133c9,0 17,2 25,5 8,3 16,8 22,15l0 0 -17 17c-4,-4 -9,-7 -14,-9 -10,-4 -22,-4 -32,0 -5,2 -10,5 -14,9 -4,4 -7,9 -9,14 -2,5 -3,10 -3,16 0,5 1,11 3,16 2,5 5,10 9,14 4,4 9,7 14,9 10,4 22,4 32,0 5,-2 10,-5 14,-9l6 -6 34 0 -24 24c-6,6 -14,11 -22,15 -16,6 -34,6 -50,0 -8,-3 -16,-8 -22,-15 -6,-6 -11,-14 -15,-22 -3,-8 -5,-16 -5,-25 0,-9 2,-17 5,-25 3,-8 8,-16 15,-22 6,-6 14,-11 22,-15 8,-3 16,-5 25,-5zm-234 618l0 -50c0,-10 6,-22 13,-28 7,-7 19,-13 28,-13 8,0 14,0 21,3 4,2 7,4 10,6 11,8 15,19 19,33l0 49 -91 0zm458 0l-90 0 0 -76c1,-4 0,-9 1,-13 7,-40 60,-48 81,-17 5,7 8,16 8,27l0 80zm-345 -79c1,-35 34,-56 65,-43 3,1 5,2 7,4 4,3 5,4 9,8 1,1 2,2 3,3 5,6 8,16 8,25l0 82 -91 0 0 -79zm229 4l0 75 -112 0 0 -85c0,-22 15,-42 35,-49 12,-4 25,-5 37,-1 7,2 13,5 19,9 4,3 8,7 11,11 6,8 8,17 10,26 1,5 0,9 0,13zm82 -142c-8,-2 -15,-2 -23,0 -23,6 -40,30 -34,55 1,6 3,11 7,16l5 6c-10,5 -17,13 -22,25 -7,-16 -17,-28 -32,-36 2,-2 5,-5 10,-12l4 -7c6,-15 7,-32 1,-46 -3,-7 -5,-11 -11,-17 -2,-2 -1,-1 -4,-4 -6,-5 -10,-8 -19,-12 -19,-7 -39,-4 -55,8l-4 4c0,0 0,0 -1,1 -6,5 -12,14 -15,21 -7,19 -5,41 7,57 2,3 7,7 8,9 -5,3 -12,10 -17,14 0,0 0,0 0,0l-7 7c-2,2 -5,6 -5,9 1,-1 -14,-16 -24,-19 0,-2 1,-2 2,-3 2,-3 5,-7 6,-10 4,-10 4,-13 4,-23 0,-14 -10,-30 -22,-37l-4 -2c-3,-2 -6,-2 -10,-3 -2,-1 -9,-2 -11,-1l-12 2 0 -425 278 0c0,36 0,70 0,106l0 319zm-483 -278l0 432 41 0 0 86 608 0 0 -86 40 0 0 -433 -183 0 0 -170 -322 0c0,8 1,167 0,170l-184 0zm103 328c-14,0 -26,12 -26,26 0,14 11,26 26,26 14,0 26,-12 26,-26 0,-14 -11,-26 -26,-26zm96 -27c-5,5 -7,11 -7,18 0,14 12,26 26,26 7,0 13,-3 18,-7 5,-5 7,-11 7,-18 0,-14 -12,-26 -26,-26 -7,0 -13,3 -18,7zm145 -37c-18,0 -33,15 -33,33 0,18 15,33 33,33 18,0 33,-15 33,-33 0,-18 -15,-33 -33,-33zm106 40c-3,4 -5,10 -5,16 0,14 12,26 26,26 8,0 15,-4 20,-10 3,-4 5,-10 5,-16 0,-14 -12,-26 -26,-26 -8,0 -15,4 -20,10zm135 24c-4,0 -7,1 -10,2 -9,4 -16,13 -16,24 0,14 12,26 26,26 4,0 7,-1 10,-2 9,-4 16,-13 16,-24 0,-14 -12,-26 -26,-26z"/>
 </g>
</svg>
