<?xml version="1.0" encoding="UTF-8"?>
<!DOCTYPE svg PUBLIC "-//W3C//DTD SVG 1.1//EN" "http://www.w3.org/Graphics/SVG/1.1/DTD/svg11.dtd">
<!-- Creator: CorelDRAW 2019 (64 Bit) -->
<svg  xmlns="http://www.w3.org/2000/svg" xml:space="preserve" width="87.5051mm" height="82.943mm" version="1.1" shape-rendering="geometricPrecision" text-rendering="geometricPrecision" image-rendering="optimizeQuality" fill-rule="evenodd" clip-rule="evenodd"
viewBox="0 0 1010 957"
 xmlns:xlink="http://www.w3.org/1999/xlink">
 <g id="Camada_x0020_1">
  <metadata id="CorelCorpID_0Corel-Layer"/>
  <path  d="M895 947c-15,0 -30,-3 -43,-8 -14,-6 -27,-14 -38,-25l0 0 30 -30c7,7 15,12 24,16 18,7 38,7 55,0 9,-4 17,-9 24,-16 7,-7 12,-15 16,-24 4,-9 5,-18 5,-28 0,-10 -2,-19 -5,-28 -4,-9 -9,-17 -16,-24 -7,-7 -15,-12 -24,-16 -18,-7 -38,-7 -55,0 -9,4 -17,9 -24,16l-16 17 -60 0 2 -2 44 -45c11,-11 24,-20 38,-25 28,-11 59,-11 87,0 14,6 27,14 38,25 11,11 20,24 25,38 6,14 8,28 8,43 0,15 -3,30 -8,43 -6,14 -14,27 -25,38 -11,11 -24,20 -38,25 -14,6 -28,8 -43,8zm-422 -84c0,-3 2,-5 5,-5 3,0 5,2 5,5 0,3 -2,5 -5,5 -3,0 -5,-2 -5,-5zm-37 -2c0,-5 4,-9 10,-9 5,0 9,4 9,10 0,5 -4,9 -10,9 -5,0 -9,-4 -9,-10zm-43 -6c0,-8 6,-14 14,-14 8,0 14,6 14,14 0,8 -6,14 -14,14 -8,0 -14,-6 -14,-14zm139 45c0,-3 2,-5 5,-5 3,0 5,2 5,5 0,3 -2,5 -5,5 -3,0 -5,-2 -5,-5zm-43 3c0,-5 4,-9 10,-9 5,0 9,4 9,10 0,5 -4,9 -10,9 -5,0 -9,-4 -9,-10zm93 27c0,-3 2,-5 5,-5 3,0 5,2 5,5 0,3 -2,5 -5,5 -3,0 -5,-2 -5,-5zm-41 7c0,-5 4,-9 10,-9 5,0 9,4 9,10 0,5 -4,9 -10,9 -5,0 -9,-4 -9,-10zm-45 4c0,-8 6,-14 14,-14 8,0 14,6 14,14 0,8 -6,14 -14,14 -8,0 -14,-6 -14,-14zm-52 -38c0,-8 6,-14 14,-14 8,0 14,6 14,14 0,8 -6,14 -14,14 -8,0 -14,-6 -14,-14zm-145 -9c-9,-4 -2,-17 7,-13 35,15 73,26 113,31 7,1 14,-4 15,-11 1,-7 -4,-14 -11,-15 -56,-8 -109,-27 -156,-55 -9,-5 -2,-16 7,-13 28,17 58,30 89,40 7,2 14,-2 16,-9 2,-7 -2,-14 -9,-16 -77,-24 -144,-72 -191,-136 -46,-62 -72,-139 -71,-223 1,-102 44,-195 112,-261 68,-66 161,-107 264,-106 102,1 195,44 261,112 61,63 100,146 105,239l-44 0c-4,0 -7,2 -8,5 -2,3 -2,7 0,10l96 143c2,3 4,4 8,4 3,0 6,-1 8,-4l100 -141c2,-3 2,-6 1,-10 -2,-3 -5,-5 -8,-5l-44 0c-5,-123 -56,-234 -136,-316 -86,-88 -205,-143 -337,-144 -132,-1 -252,51 -340,136 -88,86 -143,205 -144,337 -1,132 51,252 136,340 86,88 205,143 337,144 7,0 13,-6 13,-13 0,-7 -6,-13 -13,-13 -62,-1 -121,-14 -175,-37zm0 -545c5,2 11,4 16,6l12 -31c-14,-7 -29,-10 -45,-10 -14,0 -27,3 -37,9 -11,6 -19,15 -24,26 -6,11 -9,25 -9,40 0,24 6,43 18,55 12,13 29,19 51,19 15,0 29,-3 41,-8l0 -33c-6,2 -12,5 -18,7 -6,2 -12,3 -19,3 -21,0 -32,-14 -32,-42 0,-13 3,-24 8,-32 5,-8 12,-11 22,-11 6,0 12,1 17,3zm182 113l-48 -146 -52 0 -47 146 43 0 7 -27 47 0 7 27 43 0zm-89 -59c6,-23 10,-38 12,-46 2,-8 3,-13 4,-17 1,4 2,10 4,18 2,8 4,15 5,21l6 24 -31 0zm193 -9c-5,-7 -14,-13 -26,-18 -13,-6 -21,-10 -24,-12 -3,-2 -4,-5 -4,-8 0,-3 1,-5 3,-7 2,-2 6,-3 11,-3 10,0 22,3 35,9l12 -30c-16,-7 -31,-10 -46,-10 -17,0 -31,4 -40,11 -10,8 -15,18 -15,31 0,7 1,13 3,19 2,5 6,10 10,14 5,4 12,8 21,12 10,5 17,8 19,9 2,2 4,3 5,4 1,2 2,3 2,5 0,3 -1,6 -4,8 -3,2 -7,3 -13,3 -7,0 -14,-1 -22,-3 -8,-2 -16,-5 -23,-9l0 35c7,3 14,6 21,7 7,1 15,2 24,2 12,0 22,-2 30,-6 9,-4 15,-9 20,-16 5,-7 7,-15 7,-24 0,-10 -2,-18 -7,-24zm154 -77l-40 0 0 54 -46 0 0 -54 -40 0 0 145 40 0 0 -59 46 0 0 59 40 0 0 -145zm-522 325l57 0c17,0 31,-4 41,-11 10,-8 15,-18 15,-31 0,-9 -2,-16 -6,-22 -4,-6 -11,-9 -20,-12l0 -1c7,-2 12,-5 17,-11 4,-6 6,-13 6,-21 0,-12 -5,-22 -14,-27 -10,-6 -24,-9 -44,-9l-51 0 0 145zm39 -116l11 0c12,0 19,4 19,12 0,5 -1,8 -5,10 -3,2 -7,3 -13,3l-12 0 0 -26zm13 55c6,0 11,1 14,4 3,3 5,6 5,11 0,10 -6,15 -18,15l-14 0 0 -31 13 0zm217 61l-48 -146 -52 0 -47 146 43 0 7 -27 47 0 7 27 43 0zm-89 -59c6,-23 10,-38 12,-46 2,-8 3,-13 4,-17 1,4 2,10 4,18 2,8 4,15 5,21l6 24 -31 0zm187 -53c5,2 11,4 16,6l12 -31c-14,-7 -29,-10 -45,-10 -14,0 -27,3 -37,9 -11,6 -19,15 -24,26 -6,11 -9,25 -9,40 0,24 6,43 18,55 12,13 29,19 51,19 15,0 29,-3 41,-8l0 -33c-6,2 -12,5 -18,7 -6,2 -12,3 -19,3 -21,0 -32,-14 -32,-42 0,-13 3,-24 8,-32 5,-8 12,-11 22,-11 6,0 12,1 17,3zm129 32l46 -65 -43 0 -31 45c-6,8 -10,15 -12,19l0 -63 -40 0 0 145 40 0 0 -49 12 -7 29 56 44 0 -45 -80zm217 241c-2,0 -4,1 -5,3l-9 15 -8 -14 -14 0 14 22 -15 23 14 0 8 -14 8 14 14 0 -16 -23 18 -26 -11 0zm-79 40c6,0 10,-4 10,-13 0,-9 -3,-14 -10,-14 -7,0 -10,5 -10,14 0,9 4,13 10,13zm-10 17c0,4 -2,6 -6,6l-6 0 0 -39c0,-13 8,-20 22,-20 15,0 22,8 22,23 0,15 -6,23 -19,24 -6,0 -10,-2 -13,-7l0 14zm-39 -17c-6,0 -10,-4 -10,-13 0,-9 3,-14 10,-14 7,0 10,4 10,14 0,9 -4,13 -10,13zm-3 10c6,0 10,-2 13,-7 0,5 0,1 0,1 0,7 -3,10 -9,10 -1,0 -2,0 -3,0 -4,-1 -6,0 -8,2l-4 3c4,3 8,5 14,5 15,0 22,-6 22,-17l0 -23c0,-13 -7,-20 -22,-20 -15,0 -22,8 -22,23 0,15 6,23 19,23zm-23 -46l-6 0c-4,0 -6,2 -6,6l0 24c0,5 -3,7 -8,7 -5,0 -8,-2 -8,-7l0 -29 -12 0 0 27c0,8 2,12 6,15 4,3 8,4 13,4 5,0 10,-1 14,-3 4,-2 6,-8 6,-15l0 -27zm-50 -13l-6 0 0 58 12 0 0 -52c0,-3 -3,-6 -6,-6zm-42 67c0,4 -2,6 -6,6l-6 0 0 -40c0,-13 8,-20 22,-20 14,0 22,8 22,23 0,15 -6,23 -19,24 -6,0 -10,-2 -13,-7l0 15zm10 -18c6,0 10,-4 10,-13 0,-9 -3,-14 -10,-14 -7,0 -10,5 -10,14 0,9 4,13 10,13zm184 -36l0 45 12 0 0 -40c0,-4 -2,-5 -6,-5l-6 0zm0 -13l0 9 12 0 0 -3c0,-4 -2,-6 -6,-6l-6 0zm-160 -76c15,0 30,3 43,8 14,6 27,14 38,25l0 0 -30 30c-7,-7 -15,-12 -24,-16 -18,-7 -38,-7 -55,0 -9,4 -17,9 -24,16 -7,7 -12,15 -16,24 -4,9 -5,18 -5,28 0,10 2,19 5,28 4,9 9,17 16,24 7,7 15,12 24,16 18,7 38,7 55,0 9,-4 17,-9 24,-16l11 -11 59 0 -41 41c-11,11 -24,20 -38,25 -28,11 -59,11 -87,0 -14,-6 -27,-14 -38,-25 -11,-11 -20,-24 -25,-38 -6,-14 -8,-28 -8,-43 0,-15 3,-30 8,-43 6,-14 14,-27 25,-38 11,-11 24,-20 38,-25 14,-6 28,-8 43,-8z"/>
 </g>
</svg>
