<?xml version="1.0" encoding="UTF-8"?>
<!DOCTYPE svg PUBLIC "-//W3C//DTD SVG 1.1//EN" "http://www.w3.org/Graphics/SVG/1.1/DTD/svg11.dtd">
<!-- Creator: CorelDRAW 2019 (64 Bit) -->
<svg  xmlns="http://www.w3.org/2000/svg" xml:space="preserve" width="87.5051mm" height="64.3502mm" version="1.1" shape-rendering="geometricPrecision" text-rendering="geometricPrecision" image-rendering="optimizeQuality" fill-rule="evenodd" clip-rule="evenodd"
viewBox="0 0 1014 746"
 xmlns:xlink="http://www.w3.org/1999/xlink">
 <g id="Camada_x0020_1">
  <metadata id="CorelCorpID_0Corel-Layer"/>
  <path d="M342 320c-44,52 -75,52 -75,173 0,83 0,167 0,250l55 2c1,-74 0,-147 0,-219 0,-95 2,-126 62,-164 41,16 56,38 120,39 67,1 82,-23 126,-40 61,36 64,66 63,158 0,75 0,151 0,226l54 -1c0,-84 0,-168 0,-252 0,-86 -27,-142 -79,-169 30,-74 63,-131 12,-220 -87,-154 -287,-122 -351,3 -53,103 -4,165 13,214zm614 258l55 0c-2,-136 19,-180 -42,-251 90,-215 -226,-268 -242,-80 -7,86 65,158 154,141 45,-9 73,-42 76,45 1,47 0,99 -1,146zm-128 -386c-97,42 -29,179 61,136 78,-37 32,-177 -61,-136zm-786 135c-61,83 -39,102 -41,253l56 0c0,-258 -6,-207 73,-192 89,16 160,-55 153,-141 -6,-75 -86,-141 -175,-108 -72,26 -107,109 -67,188zm38 -61c3,47 52,86 105,64 29,-12 42,-40 42,-67 0,-39 -27,-78 -70,-75 -44,3 -80,33 -76,79zm397 -206c-200,52 -118,323 61,282 69,-16 126,-87 109,-173 -14,-68 -89,-130 -169,-110z"/>
 </g>
</svg>
