<?xml version="1.0" encoding="UTF-8"?>
<!DOCTYPE svg PUBLIC "-//W3C//DTD SVG 1.1//EN" "http://www.w3.org/Graphics/SVG/1.1/DTD/svg11.dtd">
<!-- Creator: CorelDRAW 2019 (64 Bit) -->
<svg  xmlns="http://www.w3.org/2000/svg" xml:space="preserve" width="74.0923mm" height="79.3846mm" version="1.1" shape-rendering="geometricPrecision" text-rendering="geometricPrecision" image-rendering="optimizeQuality" fill-rule="evenodd" clip-rule="evenodd"
viewBox="0 0 714 765"
 xmlns:xlink="http://www.w3.org/1999/xlink">
 <g id="Camada_x0020_1">
  <metadata id="CorelCorpID_0Corel-Layer"/>
  <path  d="M714 64c0,0 0,0 0,0 0,-35 -29,-64 -64,-64 0,0 0,0 0,0l-483 0c-36,0 -65,29 -65,65l0 177 -26 0c-7,0 -13,6 -13,13l0 255c0,7 6,13 13,13l561 0c7,0 13,-6 13,-13l0 -255c0,-7 -6,-13 -13,-13l-26 0 0 -89 102 0 0 -89zm-587 179l0 -177c0,-22 18,-40 40,-40l432 0c0,0 -1,1 -1,2 -1,1 -1,2 -2,3 -1,2 -3,4 -4,7 -1,1 -1,3 -2,4 -1,2 -2,5 -2,8 0,1 -1,2 -1,4 -1,4 -1,8 -1,12l0 179 -459 0zm89 64l-26 0 0 140c0,7 6,13 13,13l64 0 0 -26 -51 0 0 -128zm140 0l-26 0c-21,0 -38,17 -38,38l0 77c0,21 17,38 38,38l26 0c21,0 38,-17 38,-38l0 -77c0,-21 -17,-38 -38,-38l0 0zm13 115c0,7 -6,13 -13,13l-26 0c-7,0 -13,-6 -13,-13l0 -77c0,-7 6,-13 13,-13l26 0c7,0 13,6 13,13l0 77zm140 -52l-38 0 0 26 26 0 0 26c0,7 -6,13 -13,13l-26 0c-7,0 -13,-6 -13,-13l0 -77c0,-7 6,-13 13,-13l26 0c7,0 13,6 13,13l26 0c0,-21 -17,-38 -38,-38l-26 0c-21,0 -38,17 -38,38l0 77c0,21 17,38 38,38l26 0c21,0 38,-17 38,-38l0 -38c0,-7 -6,-13 -13,-13zm178 -254l-76 0 0 -52c0,-21 17,-38 38,-38 21,0 38,17 38,38l0 52zm-102 407l0 179c0,21 -17,38 -38,38 -21,0 -38,-17 -38,-38l0 -89 -383 0 0 -89 -26 0 0 89 -102 0 0 89c0,35 29,64 64,64l485 0c35,0 64,-29 64,-64l0 -179 -26 0zm-523 217c-21,0 -38,-17 -38,-38l0 -64 459 0 0 64c0,0 0,0 0,0 0,14 4,27 13,38l-434 0z"/>
 </g>
</svg>
