<?xml version="1.0" encoding="UTF-8"?>
<!DOCTYPE svg PUBLIC "-//W3C//DTD SVG 1.1//EN" "http://www.w3.org/Graphics/SVG/1.1/DTD/svg11.dtd">
<!-- Creator: CorelDRAW 2019 (64 Bit) -->
<svg  xmlns="http://www.w3.org/2000/svg" xml:space="preserve" width="84.7273mm" height="84.7272mm" version="1.1" shape-rendering="geometricPrecision" text-rendering="geometricPrecision" image-rendering="optimizeQuality" fill-rule="evenodd" clip-rule="evenodd"
viewBox="0 0 947 947"
 xmlns:xlink="http://www.w3.org/1999/xlink">
 <g id="Camada_x0020_1">
  <metadata id="CorelCorpID_0Corel-Layer"/>
  <g id="_2112107206976">
   <path  d="M242 239c0,-7 1,-18 2,-26 4,-29 16,-55 34,-78 27,-37 72,-67 114,-82 20,-7 57,-18 80,-18 6,0 8,-1 14,-1 42,0 85,13 119,35l40 32c41,44 64,97 64,162 0,24 0,37 -5,61 -1,7 -3,13 -4,20l-5 19c-61,0 -114,14 -164,43 -34,19 -54,38 -80,65 -2,2 -3,3 -5,6 -2,2 -3,3 -5,6 -10,12 -6,5 -10,10l-57 89c-5,9 -11,17 -16,25 -6,9 -11,17 -16,25l-16 26c-17,0 -35,-3 -52,-4 -34,-1 -24,-10 -45,21l-62 96c-10,15 -23,40 -37,48 -15,9 -24,5 -36,4 -5,0 -10,0 -15,0 -10,0 -19,0 -29,0 -2,-3 -3,-11 -4,-16l-11 -52c0,-7 2,-16 4,-21 5,-14 21,-34 30,-46 4,-5 7,-10 10,-15l135 -193c2,-3 3,-5 5,-7 2,-3 3,-4 5,-7l21 -30c4,-5 7,-10 10,-15l26 -37c2,-3 4,-5 3,-8 -1,-4 -6,-12 -8,-17 -8,-16 -15,-38 -21,-56 -6,-19 -11,-45 -11,-65zm-33 -8c0,38 4,60 16,96 5,14 11,30 17,43 4,8 1,5 -11,23l-205 294c-20,29 -26,35 -26,75 0,8 12,56 14,64 3,10 6,22 13,27 5,4 9,2 17,3 21,2 53,1 75,1 9,0 23,-6 28,-10 16,-11 26,-26 35,-42l76 -119c15,0 48,5 62,5 5,0 16,1 20,2 1,-3 2,-4 4,-6 2,-2 3,-4 4,-7 3,-4 5,-8 8,-13l33 -51c5,-9 12,-17 17,-26 12,-20 36,-56 50,-76l34 -39c2,-2 3,-3 5,-5l12 -10c14,-12 41,-30 58,-37 27,-11 38,-17 71,-23 25,-5 49,-6 79,-6 2,-4 4,-9 5,-13 6,-18 8,-23 13,-43 16,-71 5,-162 -34,-220 -5,-7 -15,-22 -20,-28 -18,-19 -17,-21 -41,-39 -39,-29 -93,-51 -143,-51 -48,0 -80,6 -121,22 -57,23 -105,58 -138,112 -14,23 -29,61 -29,97z"/>
   <path  d="M577 474c4,-2 29,-12 33,-13 1,4 16,27 18,30 3,5 6,10 9,15 2,4 9,13 9,16 9,-2 25,-4 36,-4 7,0 32,2 36,4 8,-16 30,-46 38,-61 8,4 25,10 32,14 0,4 -3,14 -4,18 -2,8 -12,48 -12,53 2,1 4,3 7,5 8,6 21,16 27,24 2,3 3,4 6,7l10 15c4,-2 67,-15 72,-17 0,4 4,12 6,16l6 16c-2,2 -4,3 -7,4l-54 34c0,9 3,20 3,35 0,11 -2,27 -4,37 4,1 12,6 15,9 5,3 10,7 16,10 5,3 28,18 31,18l-14 32c-5,0 -13,-3 -17,-4l-36 -8c-6,-1 -11,-3 -19,-3 -1,3 -8,12 -10,14 -9,11 -27,28 -38,34l8 36c2,11 6,24 8,36 -4,0 -12,4 -16,6 -4,2 -13,6 -17,6 -5,-9 -37,-57 -38,-61 -4,0 -9,1 -13,2 -14,2 -31,2 -45,0 -4,0 -10,-2 -14,-2 -3,5 -6,9 -9,15 -3,6 -7,10 -10,15 -3,5 -6,10 -10,15 -3,5 -6,10 -10,15 -2,0 -32,-12 -32,-14l8 -35c3,-11 6,-24 9,-35 -2,-1 -5,-3 -7,-4 -3,-2 -4,-3 -7,-6 -14,-11 -26,-25 -36,-39l-52 11c-4,1 -16,3 -18,4 -2,-4 -5,-11 -7,-16 -2,-6 -4,-11 -7,-16l61 -38c0,-6 -3,-17 -3,-28l1 -29c0,-5 2,-10 2,-15 -16,-8 -46,-30 -60,-38 4,-8 9,-23 14,-32l69 15c2,0 2,-1 4,-2 0,-1 2,-3 3,-4 2,-3 4,-5 6,-7 14,-16 22,-23 40,-35l-15 -71zm370 151l0 0c-6,2 -12,7 -17,10l-33 21c-6,4 -10,7 -16,10l0 38c6,2 19,11 25,15l41 25 0 0c-1,7 -26,62 -31,74 -1,3 -3,7 -4,10 -6,0 -15,-3 -20,-4 -6,-1 -13,-3 -20,-4 -13,-3 -26,-6 -38,-9 -3,6 -19,22 -25,25 1,6 3,13 4,20 2,10 13,50 13,58 -7,2 -15,6 -22,8 -7,3 -14,6 -21,9 -7,3 -14,6 -21,9 -7,3 -14,7 -21,8l0 0 -31 -50c-3,-5 -9,-11 -10,-17 -3,1 1,1 -3,1 -6,0 -30,1 -34,-1l-43 67 0 0c-10,-5 -84,-32 -84,-36 0,-6 11,-47 13,-56 5,-24 8,-14 -9,-32 -4,-4 -8,-8 -12,-13 -5,0 -15,3 -20,4l-39 9c-5,1 -14,4 -19,4 -1,-11 -30,-67 -34,-84 22,-14 45,-27 67,-42 0,-5 -1,-5 -1,-11l1 -26c-6,-3 -11,-7 -17,-11l-33 -21c-3,-2 -15,-9 -15,-12 0,-4 26,-60 31,-73 6,-15 2,-10 43,-1 8,2 31,6 37,9 4,-6 21,-22 27,-26 -3,-13 -6,-26 -9,-39 -2,-11 -8,-28 -8,-39 14,-3 76,-33 84,-33 2,0 30,47 32,50 13,21 7,15 28,15 15,0 16,5 23,-7 2,-3 3,-5 5,-8 4,-6 7,-11 10,-17l21 -33c8,2 54,22 64,26 4,2 7,3 11,5 4,2 7,3 10,4l-13 57c-4,19 -8,16 3,26l19 20c7,0 30,-7 39,-9 6,-2 14,-3 20,-5 5,-1 14,-4 19,-4 0,6 15,37 17,43 3,7 6,14 9,21 2,5 8,16 8,21z"/>
   <path  d="M425 185c0,-27 46,-65 82,-65 32,0 45,5 69,23 6,5 6,6 11,11 25,28 29,76 10,108 -25,40 -39,30 -81,1l-18 -13c-3,-2 -6,-4 -9,-6 -3,-2 -5,-4 -9,-6 -3,-2 -6,-4 -9,-6 -13,-9 -46,-29 -46,-47zm-33 -5c0,16 0,23 10,37 16,22 62,51 86,68 46,33 91,65 133,2 34,-51 27,-120 -16,-162 -48,-48 -120,-52 -173,-11 -17,14 -41,41 -41,66z"/>
   <path  d="M681 754c-64,0 -93,-78 -50,-121 27,-27 73,-27 100,0 6,6 11,12 14,19 9,19 9,42 0,61 -4,9 -8,13 -15,20 -11,11 -28,21 -50,21zm-104 -72c0,61 47,106 104,106 27,0 56,-12 74,-30 9,-9 16,-19 21,-31 12,-27 13,-59 0,-86 -3,-6 -6,-12 -9,-17 -2,-2 -3,-5 -5,-7 -40,-47 -111,-51 -154,-8 -10,10 -15,17 -21,30 -5,11 -10,27 -10,42z"/>
   <path  d="M65 740c5,2 9,6 14,9 4,3 10,8 14,9l114 -160c18,-26 39,-54 57,-80 10,-14 19,-27 29,-40l21 -30c2,-3 6,-7 7,-11 -2,-3 -10,-8 -13,-10 -3,-2 -11,-8 -14,-9l-222 311c-3,4 -5,6 -7,10z"/>
  </g>
 </g>
</svg>
