<?xml version="1.0" encoding="UTF-8"?>
<!DOCTYPE svg PUBLIC "-//W3C//DTD SVG 1.1//EN" "http://www.w3.org/Graphics/SVG/1.1/DTD/svg11.dtd">
<!-- Creator: CorelDRAW 2019 (64 Bit) -->
<svg  xmlns="http://www.w3.org/2000/svg" xml:space="preserve" width="68.2745mm" height="70.5626mm" version="1.1" shape-rendering="geometricPrecision" text-rendering="geometricPrecision" image-rendering="optimizeQuality" fill-rule="evenodd" clip-rule="evenodd"
viewBox="0 0 611 631"
 xmlns:xlink="http://www.w3.org/1999/xlink">
 <g id="Camada_x0020_1">
  <metadata id="CorelCorpID_0Corel-Layer"/>
  <path  d="M534 631l-420 0c-42,0 -76,-34 -76,-76l0 -17 27 0c24,0 43,-20 43,-45 0,-25 -20,-45 -43,-45l-27 0 0 -265 27 0c24,0 43,-20 43,-45 0,-25 -20,-45 -43,-45l-27 0 0 -17c0,-42 34,-76 76,-76l420 0c42,0 76,34 76,76l0 478c0,42 -34,76 -76,76zm-515 -473l38 0c11,0 19,-9 19,-20 0,-11 -9,-20 -19,-20l-38 0c-11,0 -19,9 -19,20 0,11 9,20 19,20zm38 355l-38 0c-11,0 -19,-9 -19,-20 0,-11 9,-20 19,-20l38 0c11,0 19,9 19,20 0,11 -9,20 -19,20zm91 -469l369 0c30,0 54,24 54,54l0 435c0,30 -24,54 -54,54l-369 0 0 -544zm4 6l366 0c27,0 49,22 49,49l0 435c0,27 -22,49 -49,49l-366 0 0 -532zm141 107c0,-24 -13,-38 -38,-38l-40 0c-7,0 -12,6 -12,13l0 104 24 0 0 -42 30 0c23,0 36,-15 36,-38zm-65 17l0 -34 24 0c11,0 17,6 17,17 0,11 -6,17 -18,17l-23 0zm88 -54l-12 0 0 117 23 0 0 -106c0,-6 -5,-11 -11,-11zm100 26l-12 0c-8,0 -11,4 -11,11l0 48c0,10 -5,15 -15,15 -10,0 -15,-5 -15,-15l0 -59 -23 0 0 55c0,15 4,25 12,30 8,5 16,8 26,8 10,0 19,-2 27,-7 8,-5 12,-15 12,-31l0 -55zm51 73c-12,0 -19,-9 -19,-26 0,-18 6,-27 19,-27 13,0 19,9 19,27 -1,18 -7,26 -20,26zm-6 20c11,0 20,-4 26,-13 0,9 0,9 0,9 0,14 -6,21 -18,21 -9,0 -15,-3 -16,-10l-25 0c5,19 18,29 39,29 29,-1 43,-12 43,-35l0 -54c0,-27 -14,-41 -43,-41 -28,1 -42,16 -42,46 0,31 12,47 36,47zm-135 187l46 0c1,0 1,0 1,-1l3 -3c0,0 0,0 0,0l1 -1c1,-1 1,-1 2,-2l5 -5c0,0 1,-1 1,-1l1 -1c0,0 0,0 0,0l2 -2c0,0 1,-1 1,-1 1,-1 1,-1 2,-2 3,-2 4,-3 8,-5 2,-1 3,-2 5,-2 4,-2 8,-3 13,-3 4,-1 10,-1 13,0 2,0 4,0 6,1 2,0 4,1 6,1 2,1 4,1 7,2 3,1 5,2 7,4 2,1 3,2 4,3 2,1 4,3 6,5 2,2 4,4 6,7 3,4 5,7 7,11 1,3 3,8 4,11l1 6c0,2 0,5 0,7 0,7 -1,14 -3,20 -1,2 -1,3 -2,5 -3,6 -6,11 -10,15 0,0 0,0 0,0 0,0 0,0 0,0 0,0 0,0 0,0l-4 4c-2,1 -4,3 -6,4l-3 2c0,0 -1,0 -1,1l-4 2c-5,2 -11,4 -17,5 -7,1 -14,1 -20,-1 -5,-1 -9,-3 -13,-5 -1,0 -1,-1 -2,-1 -2,-1 -4,-3 -6,-4l-2 -2c-1,-1 -1,-1 -2,-2 -1,0 -1,-2 -2,-2l-5 5c0,0 0,0 0,0l-2 2c0,0 0,0 0,0l-1 1c0,0 0,0 0,0l-1 1c0,0 0,0 0,0l-5 5c0,0 0,0 0,0l-2 2c0,0 0,0 0,0 0,0 0,0 0,0 0,0 0,0 0,0l0 0c0,0 0,0 0,0l-2 2c0,0 0,0 0,0l0 0c0,0 0,0 0,0l-2 2c0,0 -1,1 -1,1 0,1 2,2 3,3l5 4c3,3 9,7 13,9 3,1 5,2 8,4 2,1 4,2 6,2 1,0 3,1 4,1 1,0 1,0 2,1 4,1 10,2 14,3 1,0 3,0 4,0l4 0 5 0c0,0 1,0 1,0 0,0 1,0 1,0 1,0 1,0 1,0 6,0 13,-2 19,-3 3,-1 6,-2 9,-3l3 -1c3,-2 6,-3 9,-5 0,0 1,0 1,-1 0,0 1,0 1,-1 3,-2 6,-4 8,-6l3 -3c0,0 0,0 0,0l3 -3c1,-1 4,-4 5,-6 0,-1 1,-1 1,-1l5 -6c1,-2 2,-3 3,-5l3 -5c0,0 0,-1 0,-1l3 -7c0,0 0,-1 0,-1 1,-3 2,-5 3,-8l2 -8c1,-7 2,-12 2,-20l0 0 0 -1c0,0 0,-1 0,-1l0 -3c0,-2 0,-3 0,-5l-1 -7c0,0 0,-1 0,-1 0,0 0,-1 0,-1l-1 -4c0,-1 0,-1 -1,-2l-1 -4c-1,-3 -3,-6 -4,-10l-3 -5c0,0 0,-1 -1,-1 -2,-4 -5,-7 -8,-11 -2,-2 -5,-5 -7,-7 -1,-1 -1,-1 -1,-1l-3 -3c-3,-3 -7,-5 -10,-8 0,0 -1,0 -1,-1 -1,0 -1,-1 -2,-1 -3,-1 -5,-3 -7,-4 -2,-1 -4,-2 -6,-2 -2,-1 -4,-2 -6,-2 -10,-3 -16,-4 -27,-4 -5,0 -11,1 -16,2 -1,0 -1,0 -2,0 -1,0 -1,0 -2,0l-4 1c-4,1 -9,3 -13,5 -1,1 -2,1 -3,2 -7,4 -9,5 -15,10 -1,1 -3,2 -3,3l-38 37c0,0 -1,1 -1,1 0,0 0,0 0,0 0,0 0,0 0,0l-1 1zm87 4c0,1 1,0 2,0l7 0c0,-1 0,-5 -1,-6 -1,-1 -2,-1 -3,-1l-5 0 0 7zm0 39l9 0c0,0 0,0 0,0l0 -30c0,-2 0,-3 -1,-4 -1,-1 -2,-1 -3,-1l-5 0 0 36zm-125 0l9 0 0 -41c0,-2 -2,-4 -4,-4l-5 0 0 45zm14 -35l0 21c0,2 0,5 1,6 1,3 2,5 5,6 4,2 6,2 11,2 2,0 5,-1 6,-1 1,0 3,-1 4,-2 1,-1 1,-1 2,-2 0,0 1,-1 1,-1 2,-3 2,-6 2,-9l0 -21c0,0 0,0 0,0 -5,0 -9,-1 -9,5 0,2 0,19 0,20 0,1 -1,2 -2,3 -2,2 -8,2 -9,-1 -1,-2 -1,-3 -1,-5l0 -22 -9 0c0,0 0,0 0,0zm141 10l0 0c0,0 0,-1 -1,-1 0,-1 -1,-1 -1,-1 0,0 -1,-1 -1,-1l-2 -4c0,0 -1,-3 -2,-3l-10 0c-1,0 0,1 1,2l10 15 -6 9c-1,1 -1,1 -1,2 0,0 0,1 -1,1l-1 1c0,1 -3,4 -3,5l11 0c0,-1 1,-1 1,-1l2 -4c0,-1 3,-5 3,-6 1,1 5,8 6,10 0,0 1,1 1,1l11 0c0,0 -4,-6 -4,-7l-8 -11c0,0 1,-1 1,-1l10 -14c1,-1 3,-5 3,-5l-8 0c-2,0 -2,0 -3,1 0,0 0,0 0,0 0,0 0,0 0,0 0,0 0,0 0,0 0,0 -1,1 -1,2l-2 3c0,0 0,1 -1,1l-4 6c0,0 0,0 0,1zm-59 7c0,-4 1,-9 6,-10 3,0 5,0 7,1 3,3 4,12 1,16 -1,2 -4,3 -7,3 -6,0 -7,-6 -7,-11zm-9 -3l0 31c3,0 7,0 8,-1 1,-1 1,-2 1,-4 0,-3 0,-7 0,-10 0,0 0,0 0,0 0,0 0,0 0,0 1,1 2,2 3,3 4,2 10,2 14,0 2,-1 4,-3 5,-5 0,0 0,0 0,-1l1 -4c1,-4 1,-5 1,-9 0,-6 -2,-12 -7,-14 -4,-2 -7,-3 -12,-3 -2,0 -5,0 -7,1 -3,1 -5,2 -7,5 -2,3 -3,6 -3,9zm-107 -7c0,0 2,0 2,0 1,0 1,0 2,1 0,0 1,1 1,1 0,0 1,1 1,1 3,4 3,14 -2,17 -2,1 -6,1 -8,0 -2,-1 -3,-3 -3,-6l0 -3c0,0 0,-1 0,-1l0 -2c0,-4 2,-7 6,-8 0,0 2,0 2,0zm-17 8l0 31 5 0c2,0 4,-1 4,-3l0 -13 2 2c2,2 5,3 8,3 3,0 5,0 8,-2 4,-2 6,-6 7,-10 0,-2 1,-6 1,-8 0,-1 0,-1 0,-2 -1,-5 -2,-10 -6,-13 -1,-1 -2,-1 -3,-1 -4,-2 -8,-1 -13,-1 -3,0 -6,2 -8,4 -3,3 -4,6 -4,12zm104 13c-2,0 -3,0 -5,-1 -4,-2 -4,-9 -4,-13 0,-1 1,-3 1,-4 2,-3 5,-4 8,-3 2,0 3,1 4,3 2,3 2,10 1,14 0,1 -1,1 -1,2 -1,1 -3,2 -5,2zm-18 -11c0,3 0,5 1,9 1,4 3,7 7,9 4,2 10,2 14,0 0,0 1,0 1,-1 0,0 1,-1 1,-1 1,-1 2,-2 2,-2 0,6 -3,9 -10,8 -2,0 -1,0 -3,0 -2,0 -3,1 -4,2 -1,1 -3,2 -3,3 1,1 3,2 4,3 5,2 15,1 19,-2 1,-1 3,-2 4,-4 1,-2 2,-4 2,-6l0 -19c0,-5 -1,-9 -5,-12 -2,-1 -3,-2 -6,-3 -2,-1 -5,-1 -8,-1 -2,0 -2,0 -4,0 -3,0 -5,1 -7,3 -4,3 -5,8 -5,14zm-141 7c0,0 0,1 0,1l0 3c0,5 1,9 2,13l1 3c0,0 0,1 0,1l1 2c0,0 0,1 0,1l3 8c0,1 1,1 1,2 0,1 1,1 1,2 1,2 2,4 3,6l4 7c0,1 1,1 1,2 0,0 0,1 1,1l2 3c0,0 0,0 1,1 4,6 12,13 17,16 1,0 1,1 2,1l7 4c0,0 1,0 1,0 0,0 1,0 1,1 3,1 5,2 8,3 9,4 23,7 33,7 10,0 15,-1 24,-3 1,0 1,0 2,-1l5 -1c4,-1 8,-3 11,-5 0,0 0,0 1,0l5 -3c3,-2 7,-4 10,-7 2,-2 4,-4 6,-6 0,0 0,0 1,-1 1,-1 13,-13 14,-14 1,-1 19,-19 19,-19l-45 0c-2,0 -1,0 -3,1 -3,3 -6,6 -9,9 -2,2 -4,3 -6,5l-3 2c-2,1 -4,2 -5,3 -3,1 -4,2 -8,3 -5,2 -11,3 -16,3 -3,0 -7,0 -10,-1 -4,-1 -8,-1 -11,-3l-6 -3c-4,-2 -8,-5 -12,-8 -1,-1 -2,-2 -4,-3 0,0 -1,-1 -1,-1 -1,-1 -2,-2 -2,-3 -1,-1 -2,-3 -3,-4 0,-1 -1,-1 -1,-2 -2,-3 -4,-6 -5,-9l-2 -7c-1,-2 -1,-5 -1,-7 0,-3 0,-6 0,-9 0,-4 1,-9 2,-13 1,-4 2,-7 4,-11l1 -2c1,-2 2,-4 3,-5 0,0 0,-1 1,-1 1,-2 2,-4 4,-5l4 -5c0,0 1,-1 1,-1 0,0 1,0 1,-1 1,-1 3,-3 5,-4l3 -2c3,-2 5,-3 8,-4 3,-1 5,-2 8,-3 13,-3 27,-1 40,5 3,1 8,4 10,6 1,1 3,2 4,3 0,0 1,1 1,1 0,0 0,0 0,0l1 -1c0,0 0,0 0,0l0 0c0,0 0,0 0,0l0 0c0,0 0,0 0,0l10 -10c0,0 0,0 0,0l5 -5c0,0 0,0 0,0l2 -2c0,0 0,0 0,0 0,0 0,0 0,0l3 -3c0,0 0,0 0,0l1 -1c0,0 0,0 0,0l-3 -3c0,0 0,0 -1,-1 -1,-1 -2,-1 -2,-2l-3 -2c-3,-2 -5,-4 -8,-6l-7 -4 -11 -4c-3,-1 -9,-2 -12,-3 -2,0 -9,-1 -11,-1 0,0 -1,0 -1,0 0,0 -1,0 -1,0l-5 0 0 0c-7,0 -12,1 -19,2 0,0 -1,0 -1,0 0,0 -1,0 -1,0l-12 4 -8 3c-3,2 -7,4 -10,6l-3 2c-2,1 -4,3 -5,4 0,0 0,0 -1,1l-2 2c-2,1 -3,3 -4,4l-3 3c0,0 0,0 -1,1 -1,1 -2,3 -3,4 0,1 -1,1 -1,2 -2,2 -4,6 -5,9l-3 7c0,0 0,1 0,1l-2 6c-1,2 -1,4 -2,6 0,0 0,1 0,1 0,0 0,1 0,1 0,1 0,1 -1,2l-1 4c0,0 0,1 0,1 -1,4 -1,8 -1,13l0 5z"/>
 </g>
</svg>
