<?xml version="1.0" encoding="UTF-8"?>
<!DOCTYPE svg PUBLIC "-//W3C//DTD SVG 1.1//EN" "http://www.w3.org/Graphics/SVG/1.1/DTD/svg11.dtd">
<!-- Creator: CorelDRAW 2019 (64 Bit) -->
<svg  xmlns="http://www.w3.org/2000/svg" xml:space="preserve" width="68.3588mm" height="77.4089mm" version="1.1" shape-rendering="geometricPrecision" text-rendering="geometricPrecision" image-rendering="optimizeQuality" fill-rule="evenodd" clip-rule="evenodd"
viewBox="0 0 603 683"
 xmlns:xlink="http://www.w3.org/1999/xlink">
 <g id="Camada_x0020_1">
  <metadata id="CorelCorpID_0Corel-Layer"/>
  <path  d="M31 357l421 0c17,0 31,14 31,31l0 264c0,17 -14,31 -31,31l-421 0c-17,0 -31,-14 -31,-31l0 -264c0,-17 14,-31 31,-31zm132 65c14,0 27,3 40,8 13,5 25,13 35,23l0 0 -27 27c-6,-6 -14,-11 -22,-15 -16,-7 -35,-7 -51,0 -8,3 -16,8 -22,15 -6,6 -11,14 -15,22 -3,8 -5,17 -5,25 0,9 2,17 5,25 3,8 8,16 15,22 6,6 14,11 22,15 16,7 35,7 51,0 8,-3 16,-8 22,-15l10 -10 55 0 -38 38c-10,10 -22,18 -35,23 -25,10 -54,10 -80,0 -13,-5 -25,-13 -35,-23 -10,-10 -18,-22 -23,-35 -5,-13 -8,-26 -8,-40 0,-14 3,-27 8,-40 5,-13 13,-25 23,-35 10,-10 22,-18 35,-23 13,-5 26,-8 40,-8zm164 212c-14,0 -27,-3 -40,-8 -13,-5 -25,-13 -35,-23l0 0 27 -27c6,6 14,11 22,15 16,7 35,7 51,0 8,-3 16,-8 22,-15 6,-6 11,-14 15,-22 3,-8 5,-17 5,-25 0,-9 -2,-17 -5,-25 -3,-8 -8,-16 -15,-22 -6,-6 -14,-11 -22,-15 -16,-7 -35,-7 -51,0 -8,3 -16,8 -22,15l-15 15 -55 0 2 -2 41 -41c10,-10 22,-18 35,-23 25,-10 54,-10 80,0 13,5 25,13 35,23 10,10 18,22 23,35 5,13 8,26 8,40 0,14 -3,27 -8,40 -5,13 -13,25 -23,35 -10,10 -22,18 -35,23 -13,5 -26,8 -40,8zm32 -133c-2,0 -4,1 -5,3l-8 13 -7 -12 -12 0 13 20 -14 21 13 0 8 -13 8 13 13 0 -14 -21 16 -24 -10 0zm-73 36c6,0 9,-4 9,-12 0,-8 -3,-12 -9,-12 -6,0 -9,4 -9,12 0,8 3,12 9,12zm-9 16c0,3 -2,5 -5,5l-5 0 0 -36c0,-12 7,-18 20,-18 13,0 20,7 20,21 0,14 -6,21 -17,22 -5,0 -9,-2 -12,-6l0 13zm-35 -16c-6,0 -9,-4 -9,-12 0,-8 3,-12 9,-12 6,0 9,4 9,12 0,8 -3,12 -9,12zm-3 9c5,0 9,-2 12,-6 0,4 0,1 0,1 0,6 -3,10 -9,10 -1,0 -2,0 -3,0 -3,-1 -6,0 -8,2l-4 3c3,3 8,4 13,4 14,0 21,-5 21,-16l0 -21c0,-12 -7,-18 -20,-18 -13,0 -20,7 -20,21 0,14 6,21 17,21zm-21 -42l-6 0c-4,0 -5,2 -5,5l0 22c0,5 -2,7 -7,7 -5,0 -7,-2 -7,-7l0 -27 -11 0 0 25c0,7 2,11 6,14 4,2 8,3 12,3 5,0 9,-1 13,-3 4,-2 6,-7 6,-14l0 -25zm-46 -12l-6 0 0 53 11 0 0 -48c0,-3 -2,-5 -5,-5zm-39 61c0,3 -2,5 -5,5l-5 0 0 -37c0,-12 7,-18 20,-18 13,0 20,7 20,21 0,14 -6,21 -17,22 -5,0 -9,-2 -12,-6l0 14zm9 -17c6,0 9,-4 9,-12 0,-8 -3,-12 -9,-12 -6,0 -9,4 -9,12 0,8 3,12 9,12zm169 -33l0 42 11 0 0 -37c0,-3 -2,-5 -5,-5l-6 0zm0 -12l0 8 11 0 0 -3c0,-3 -2,-5 -5,-5l-6 0zm289 -364l-19 -19 23 -12 -10 -2c-28,-5 -58,-5 -90,-2 -15,-21 -32,-33 -53,-37 -52,-9 -103,42 -131,78 -14,-43 -45,-109 -97,-118 -21,-4 -43,2 -64,18 -30,-15 -60,-26 -90,-32l-10 -2 18 20 -24 11 11 2c25,5 48,13 71,24 -9,12 -16,28 -10,47 12,38 71,66 181,88l2 1 0 0 2 0 1 0 1 0 2 0 0 0 2 0c110,17 176,11 200,-20 13,-16 11,-35 6,-50 22,-2 45,-1 68,2l11 2zm-374 -52c-11,-8 -22,-16 -33,-23 9,-5 18,-7 25,-6 22,4 42,34 57,70 -14,-13 -30,-27 -49,-41zm35 74c-83,-22 -99,-44 -103,-53 -3,-8 2,-16 7,-23 40,24 73,53 96,75zm185 -62c7,1 13,5 20,12 -14,3 -29,7 -44,11 -17,5 -32,11 -47,16 25,-25 51,-42 71,-39zm39 67c-6,8 -30,23 -122,13 30,-14 74,-31 123,-40 3,8 6,18 0,26zm70 90c-16,-3 -33,-6 -49,-9 -75,-13 -95,-17 -171,-30l-5 -1c-8,43 -14,80 -22,123l7 1c26,5 52,9 77,14 65,12 76,14 141,25 16,3 29,-7 32,-22 5,-25 8,-44 12,-68 3,-16 -7,-29 -23,-32zm-299 73l6 1c8,-43 14,-79 21,-122l-6 -1c-35,-6 -71,-12 -106,-19 -55,-10 -56,-10 -111,-20 -19,-3 -32,6 -35,24 -4,23 -7,41 -11,64 -3,18 6,31 24,35 18,3 36,6 54,9 73,13 91,16 164,29z"/>
 </g>
</svg>
