<?xml version="1.0" encoding="UTF-8"?>
<!DOCTYPE svg PUBLIC "-//W3C//DTD SVG 1.1//EN" "http://www.w3.org/Graphics/SVG/1.1/DTD/svg11.dtd">
<!-- Creator: CorelDRAW 2019 (64 Bit) -->
<svg  xmlns="http://www.w3.org/2000/svg" xml:space="preserve" width="81.9066mm" height="65.4781mm" version="1.1" shape-rendering="geometricPrecision" text-rendering="geometricPrecision" image-rendering="optimizeQuality" fill-rule="evenodd" clip-rule="evenodd"
viewBox="0 0 879 702"
 xmlns:xlink="http://www.w3.org/1999/xlink">
 <g id="Camada_x0020_1">
  <metadata id="CorelCorpID_0Corel-Layer"/>
  <path  fill-rule="nonzero" d="M138 39l-35 -35c-59,44 -99,113 -103,192l49 0c5,-67 37,-123 89,-158zm452 510c13,9 46,39 56,39 4,0 46,-34 54,-39l62 57c6,6 14,17 24,11 13,-8 -3,-21 -6,-23 -3,-3 -6,-6 -10,-10 -4,-4 -7,-5 -11,-10l-21 -19c-3,-3 -6,-6 -10,-10 -5,-4 -7,-4 -11,-10l104 -76c4,-3 31,-24 35,-25 0,15 2,222 -1,231 -3,9 -9,15 -20,15l-382 0c-25,0 -21,-29 -21,-45l0 -201c5,1 28,21 34,25l104 77 -61 57c-4,4 -19,15 -8,23 9,7 18,-4 24,-10 7,-7 14,-12 21,-19l30 -29c4,-3 8,-7 11,-9zm-78 -225c3,-2 4,-4 7,-4l253 0c3,0 4,2 7,4l0 142c-5,1 -105,77 -116,86 -6,4 -11,9 -17,12 -14,-7 -127,-96 -133,-98l0 -142zm289 124l0 -71c4,1 9,6 12,8 4,3 8,6 13,9 4,3 22,14 23,19 -4,1 -9,6 -12,8 -4,3 -7,6 -12,9l-24 17zm-311 -71l0 71 -36 -26 -3 -3 18 0 0 -25 -2 -2 23 -16zm155 -111c7,0 10,3 15,6 4,3 7,5 12,9 4,3 8,6 12,9l12 10 -102 0c1,-1 1,-1 2,-2l33 -25c5,-4 8,-6 16,-6zm-234 154l0 228c0,18 2,29 10,39 7,9 20,16 35,16l377 0c13,0 27,-5 35,-15 8,-11 11,-22 11,-40l0 -228c0,-10 -2,-13 -7,-17l-66 -49c-4,-3 -5,-3 -5,-8 -2,-24 4,-26 -12,-40 -10,-9 -26,-7 -44,-6 -13,0 -12,0 -19,-5 -5,-4 -10,-7 -15,-11 -70,-53 -60,-53 -143,10 -7,6 -7,7 -19,7 -18,0 -36,-3 -46,6 -14,12 -11,16 -12,39 0,7 -2,7 -11,14 -5,4 -10,7 -15,11l-12 9 -32 -32 0 -135c0,-76 -52,-138 -123,-155l0 -17c0,-20 -17,-37 -37,-37 -20,0 -37,17 -37,37l0 17c-71,17 -123,79 -123,155l0 135 -49 49 0 25 362 0zm131 -59c0,7 5,11 8,11l187 0c14,0 17,-22 -4,-22l-176 0c-8,0 -15,3 -15,11zm40 63l126 0c21,0 18,-22 3,-22l-132 0c-15,0 -18,22 3,22zm-113 -226l49 0c-5,-79 -42,-148 -101,-192l-35 35c49,34 81,91 86,158zm-210 296l10 0c17,-2 30,-15 35,-30 3,-5 5,-12 5,-20l-99 0c0,27 22,49 49,49z"/>
 </g>
</svg>
