<?xml version="1.0" encoding="UTF-8"?>
<!DOCTYPE svg PUBLIC "-//W3C//DTD SVG 1.1//EN" "http://www.w3.org/Graphics/SVG/1.1/DTD/svg11.dtd">
<!-- Creator: CorelDRAW 2019 (64 Bit) -->
<svg xmlns="http://www.w3.org/2000/svg" xml:space="preserve" width="79.5701mm" height="56.3373mm" version="1.1" shape-rendering="geometricPrecision" text-rendering="geometricPrecision" image-rendering="optimizeQuality" fill-rule="evenodd" clip-rule="evenodd"
viewBox="0 0 830 587"
 xmlns:xlink="http://www.w3.org/1999/xlink">
 <g id="Camada_x0020_1">
  <metadata id="CorelCorpID_0Corel-Layer"/>
  <path  fill-rule="nonzero" d="M4 190c11,95 46,190 118,232 -23,17 -38,44 -38,74 0,51 41,91 91,91 50,0 91,-41 91,-91 0,-19 -6,-36 -15,-50l149 0c-9,14 -15,32 -15,50 0,51 41,91 91,91 50,0 91,-41 91,-91 0,-30 -15,-57 -38,-74 72,-43 107,-137 118,-232l-70 0 55 -121 161 0c19,0 34,-15 34,-34 0,-19 -15,-34 -34,-34l-183 0c-13,0 -26,8 -31,20l-76 170 -501 0zm499 -140l-32 69 -471 0 0 -69 503 0z"/>
 </g>
</svg>
