<?xml version="1.0" encoding="UTF-8"?>
<!DOCTYPE svg PUBLIC "-//W3C//DTD SVG 1.1//EN" "http://www.w3.org/Graphics/SVG/1.1/DTD/svg11.dtd">
<!-- Creator: CorelDRAW 2019 (64 Bit) -->
<svg  xmlns="http://www.w3.org/2000/svg" xml:space="preserve" width="74.0926mm" height="75.1296mm" version="1.1" shape-rendering="geometricPrecision" text-rendering="geometricPrecision" image-rendering="optimizeQuality" fill-rule="evenodd" clip-rule="evenodd"
viewBox="0 0 693 703"
 xmlns:xlink="http://www.w3.org/1999/xlink">
 <g id="Camada_x0020_1">
  <metadata id="CorelCorpID_0Corel-Layer"/>
  <path  d="M173 446l71 0 0 71 -71 0 0 -71zm297 14c0,36 35,35 60,42 71,19 52,116 -8,121 0,13 -3,21 -16,21 -13,0 -16,-7 -16,-21 -40,-3 -75,-64 -35,-64 8,0 10,3 12,9 17,53 78,33 78,-5 0,-59 -105,-20 -105,-99 0,-33 20,-52 50,-59 0,-19 2,-22 17,-22 13,0 14,10 14,22 12,3 20,6 28,13 11,8 33,41 -3,41 -15,0 -2,-29 -47,-29 -17,0 -31,14 -31,31zm-154 48c0,58 20,104 53,137 8,8 14,14 24,21 57,40 131,48 193,17 55,-28 99,-85 105,-146 0,-4 0,-8 1,-12 2,-17 1,-32 -3,-51 -3,-11 -7,-25 -11,-34 -11,-25 -27,-49 -48,-66 -30,-26 -69,-48 -113,-48 -40,0 -59,1 -96,18 -20,10 -36,23 -52,38 -26,26 -53,73 -53,125zm-265 -62l71 0 0 71 -71 0 0 -71zm121 -118l71 0 0 71 -71 0 0 -71zm-121 0l71 0 0 71 -71 0 0 -71zm244 -119l71 0 0 73 -71 0 0 -73zm-123 0l71 0 0 73 -71 0 0 -73zm-121 0l71 0 0 73 -71 0 0 -73zm0 -154l315 0 0 93 -315 0 0 -93zm-52 -28l0 533c0,10 10,20 19,23 10,3 272,1 289,1 -7,-14 -12,-45 -12,-66l0 -190 71 0 0 28c8,-6 16,-12 24,-17 5,-3 8,-4 13,-8 5,-3 7,-6 15,-6 0,-20 3,-295 -2,-308 -4,-9 -15,-17 -28,-17l-358 0c-18,0 -31,10 -31,28z"/>
 </g>
</svg>
