<?xml version="1.0" encoding="UTF-8"?>
<!DOCTYPE svg PUBLIC "-//W3C//DTD SVG 1.1//EN" "http://www.w3.org/Graphics/SVG/1.1/DTD/svg11.dtd">
<!-- Creator: CorelDRAW 2019 (64 Bit) -->
<svg  xmlns="http://www.w3.org/2000/svg" xml:space="preserve" width="72.8227mm" height="72.7892mm" version="1.1" shape-rendering="geometricPrecision" text-rendering="geometricPrecision" image-rendering="optimizeQuality" fill-rule="evenodd" clip-rule="evenodd"
viewBox="0 0 689 688"
 xmlns:xlink="http://www.w3.org/1999/xlink">
 <g id="Camada_x0020_1">
  <metadata id="CorelCorpID_0Corel-Layer"/>
  <path  d="M53 344l0 318c0,16 10,26 26,26l192 0c8,0 20,-12 20,-20l0 -192 106 0 0 192c0,8 12,20 20,20l192 0c16,0 26,-10 26,-26l0 -318c0,-21 -40,-45 -65,-64 -25,-19 -49,-37 -74,-55 -12,-9 -23,-18 -36,-27 -138,-103 -98,-101 -193,-30 -13,10 -23,18 -35,27 -13,10 -24,18 -38,28l-111 84c-12,9 -30,17 -30,36zm-53 -79c0,24 22,35 42,23 8,-5 14,-10 21,-16 57,-43 141,-103 193,-145 15,-12 28,-21 43,-33 58,-44 28,-45 131,32 48,36 170,131 214,160 35,23 62,-22 31,-45 -7,-5 -13,-10 -21,-15l-215 -162c-11,-8 -82,-64 -88,-64 -26,0 -22,4 -56,30l-259 195c-20,15 -36,21 -36,40zm289 8c9,0 18,2 27,5 9,4 17,9 24,16l0 0 -18 18c-4,-4 -9,-8 -15,-10 -11,-4 -23,-4 -34,0 -6,2 -11,6 -15,10 -4,4 -8,9 -10,15 -2,5 -3,11 -3,17 0,6 1,12 3,17 2,6 6,11 10,15 4,4 9,8 15,10 11,4 23,4 34,0 6,-2 11,-6 15,-10l7 -7 37 0 -25 25c-7,7 -15,12 -24,16 -17,7 -37,7 -54,0 -9,-4 -17,-9 -24,-16 -7,-7 -12,-15 -16,-24 -3,-9 -5,-18 -5,-27 0,-9 2,-18 5,-27 4,-9 9,-17 16,-24 7,-7 15,-12 24,-16 9,-3 18,-5 27,-5zm99 47l0 6 7 0 0 -2c0,-2 -1,-3 -4,-3l-4 0zm0 8l0 28 7 0 0 -25c0,-2 -1,-3 -4,-3l-4 0zm-114 22c4,0 6,-3 6,-8 0,-6 -2,-8 -6,-8 -4,0 -6,3 -6,8 0,5 2,8 6,8zm-6 11c0,2 -1,3 -4,3l-4 0 0 -25c0,-8 5,-12 14,-12 9,0 13,5 13,14 0,9 -4,14 -12,15 -4,0 -6,-1 -8,-4l0 9zm26 -41l-4 0 0 36 7 0 0 -32c0,-2 -2,-3 -4,-3zm31 8l-4 0c-2,0 -4,1 -4,3l0 15c0,3 -2,5 -5,5 -3,0 -5,-2 -5,-5l0 -18 -7 0 0 17c0,5 1,8 4,9 3,2 5,2 8,2 3,0 6,-1 9,-2 3,-2 4,-5 4,-9l0 -17zm14 28c4,0 6,-1 8,-4 0,3 0,0 0,0 0,4 -2,6 -6,6 -1,0 -2,0 -2,0 -2,-1 -4,0 -5,1l-2 2c2,2 5,3 9,3 9,0 14,-4 14,-11l0 -14c0,-8 -5,-12 -14,-12 -9,0 -13,5 -13,14 0,10 4,14 12,14zm2 -6c-4,0 -6,-3 -6,-8 0,-6 2,-8 6,-8 4,0 6,3 6,8 0,5 -2,8 -6,8zm24 10c0,2 -1,3 -4,3l-4 0 0 -24c0,-8 5,-12 14,-12 9,0 13,5 13,14 0,9 -4,14 -12,15 -4,0 -6,-1 -8,-4l0 9zm6 -11c4,0 6,-3 6,-8 0,-6 -2,-8 -6,-8 -4,0 -6,3 -6,8 0,5 2,8 6,8zm49 -24c-1,0 -3,1 -3,2l-6 9 -5 -8 -8 0 9 14 -9 14 9 0 5 -9 5 9 9 0 -10 -14 11 -16 -7 0zm-22 90c-9,0 -18,-2 -27,-5 -9,-4 -17,-9 -24,-16l0 0 18 -18c4,4 9,8 15,10 11,4 23,4 34,0 6,-2 11,-6 15,-10 4,-4 8,-9 10,-15 2,-5 3,-11 3,-17 0,-6 -1,-12 -3,-17 -2,-6 -6,-11 -10,-15 -4,-4 -9,-8 -15,-10 -11,-4 -23,-4 -34,0 -6,2 -11,6 -15,10l-10 10 -37 0 1 -1 28 -28c7,-7 15,-12 24,-16 17,-7 37,-7 54,0 9,4 17,9 24,16 7,7 12,15 16,24 3,9 5,18 5,27 0,9 -2,18 -5,27 -4,9 -9,17 -16,24 -7,7 -15,12 -24,16 -9,3 -18,5 -27,5z"/>
 </g>
</svg>
